<svg xmlns="http://www.w3.org/2000/svg" xmlns:xlink="http://www.w3.org/1999/xlink" width="377" zoomAndPan="magnify" viewBox="0 0 283.5 283.500005" height="377" preserveAspectRatio="xMidYMid meet" version="1.0"><defs><g/></defs><g fill="#000000" fill-opacity="1"><g transform="translate(30.200398, 161.807655)"><g><path d="M 22.65625 -6.4375 C 21.851562 -5.226562 21.070312 -4.191406 20.3125 -3.328125 C 19.550781 -2.472656 18.757812 -1.769531 17.9375 -1.21875 C 17.125 -0.675781 16.265625 -0.28125 15.359375 -0.03125 C 14.453125 0.21875 13.476562 0.34375 12.4375 0.34375 C 10.882812 0.34375 9.492188 0.0976562 8.265625 -0.390625 C 7.046875 -0.878906 6.007812 -1.582031 5.15625 -2.5 C 4.3125 -3.425781 3.65625 -4.539062 3.1875 -5.84375 C 2.71875 -7.144531 2.484375 -8.613281 2.484375 -10.25 C 2.484375 -12.40625 2.878906 -14.460938 3.671875 -16.421875 C 4.472656 -18.390625 5.535156 -20.125 6.859375 -21.625 C 8.191406 -23.125 9.734375 -24.320312 11.484375 -25.21875 C 13.234375 -26.113281 15.0625 -26.5625 16.96875 -26.5625 C 18.050781 -26.5625 19.085938 -26.394531 20.078125 -26.0625 C 21.066406 -25.738281 22.070312 -25.226562 23.09375 -24.53125 L 24.359375 -26.234375 L 25.609375 -26.234375 L 24.046875 -17.671875 L 22.75 -17.671875 C 22.570312 -20.148438 22.046875 -21.957031 21.171875 -23.09375 C 20.296875 -24.226562 18.984375 -24.796875 17.234375 -24.796875 C 15.734375 -24.796875 14.335938 -24.421875 13.046875 -23.671875 C 11.753906 -22.921875 10.628906 -21.882812 9.671875 -20.5625 C 8.722656 -19.25 7.972656 -17.707031 7.421875 -15.9375 C 6.878906 -14.164062 6.609375 -12.257812 6.609375 -10.21875 C 6.609375 -4.582031 8.800781 -1.765625 13.1875 -1.765625 C 14.820312 -1.765625 16.300781 -2.207031 17.625 -3.09375 C 18.957031 -3.976562 20.222656 -5.363281 21.421875 -7.25 Z M 22.65625 -6.4375 "/></g></g></g><g fill="#000000" fill-opacity="1"><g transform="translate(61.647009, 161.807655)"><g><path d="M 18.765625 -5.65625 C 18.492188 -4.445312 18.359375 -3.570312 18.359375 -3.03125 C 18.359375 -2.375 18.570312 -1.929688 19 -1.703125 C 19.4375 -1.472656 20.28125 -1.359375 21.53125 -1.359375 L 21.1875 0 L 11.109375 0 L 11.4375 -1.359375 C 12.101562 -1.359375 12.648438 -1.410156 13.078125 -1.515625 C 13.515625 -1.617188 13.875 -1.820312 14.15625 -2.125 C 14.4375 -2.4375 14.675781 -2.875 14.875 -3.4375 C 15.082031 -4.007812 15.289062 -4.757812 15.5 -5.6875 L 16.421875 -9.875 L 9.09375 -9.875 L 6.953125 -7.625 C 6.015625 -6.65625 5.28125 -5.867188 4.75 -5.265625 C 4.21875 -4.660156 3.816406 -4.175781 3.546875 -3.8125 C 3.273438 -3.445312 3.101562 -3.171875 3.03125 -2.984375 C 2.957031 -2.804688 2.921875 -2.648438 2.921875 -2.515625 C 2.921875 -2.085938 3.109375 -1.785156 3.484375 -1.609375 C 3.859375 -1.441406 4.523438 -1.359375 5.484375 -1.359375 L 5.140625 0 L -3.671875 0 L -3.34375 -1.359375 C -2.789062 -1.359375 -2.25 -1.46875 -1.71875 -1.6875 C -1.1875 -1.90625 -0.597656 -2.265625 0.046875 -2.765625 C 0.691406 -3.265625 1.40625 -3.925781 2.1875 -4.75 C 2.976562 -5.582031 3.894531 -6.625 4.9375 -7.875 L 20.640625 -26.5625 L 23.5 -26.5625 Z M 16.71875 -11.578125 L 19.515625 -22.140625 L 19.375 -22.140625 L 10.5625 -11.578125 Z M 16.71875 -11.578125 "/></g></g></g><g fill="#000000" fill-opacity="1"><g transform="translate(94.286067, 161.807655)"><g><path d="M 5.625 -26.234375 L 14.84375 -26.234375 C 16.414062 -26.234375 17.9375 -26.046875 19.40625 -25.671875 C 20.882812 -25.296875 22.226562 -24.609375 23.4375 -23.609375 C 24.726562 -22.535156 25.664062 -21.265625 26.25 -19.796875 C 26.84375 -18.335938 27.140625 -16.8125 27.140625 -15.21875 C 27.140625 -14.195312 27.019531 -13.171875 26.78125 -12.140625 C 26.550781 -11.109375 26.222656 -10.109375 25.796875 -9.140625 C 25.378906 -8.179688 24.878906 -7.273438 24.296875 -6.421875 C 23.722656 -5.566406 23.09375 -4.800781 22.40625 -4.125 C 20.820312 -2.550781 19.0625 -1.46875 17.125 -0.875 C 15.195312 -0.289062 13.132812 0 10.9375 0 L -0.984375 0 L -0.609375 -1.359375 C 0.117188 -1.359375 0.722656 -1.40625 1.203125 -1.5 C 1.691406 -1.59375 2.097656 -1.78125 2.421875 -2.0625 C 2.753906 -2.34375 3.039062 -2.742188 3.28125 -3.265625 C 3.519531 -3.785156 3.753906 -4.488281 3.984375 -5.375 L 7.90625 -20.4375 C 7.945312 -20.59375 8.003906 -20.796875 8.078125 -21.046875 C 8.160156 -21.296875 8.25 -21.566406 8.34375 -21.859375 C 8.4375 -22.160156 8.507812 -22.445312 8.5625 -22.71875 C 8.625 -22.988281 8.65625 -23.226562 8.65625 -23.4375 C 8.65625 -23.78125 8.554688 -24.039062 8.359375 -24.21875 C 8.171875 -24.394531 7.929688 -24.535156 7.640625 -24.640625 C 7.359375 -24.742188 7.050781 -24.804688 6.71875 -24.828125 C 6.394531 -24.847656 6.097656 -24.859375 5.828125 -24.859375 L 5.171875 -24.859375 Z M 8.078125 -7.875 C 7.890625 -7.1875 7.738281 -6.617188 7.625 -6.171875 C 7.507812 -5.734375 7.425781 -5.375 7.375 -5.09375 C 7.320312 -4.8125 7.28125 -4.585938 7.25 -4.421875 C 7.226562 -4.265625 7.21875 -4.128906 7.21875 -4.015625 C 7.21875 -3.398438 7.347656 -2.925781 7.609375 -2.59375 C 7.867188 -2.269531 8.179688 -2.019531 8.546875 -1.84375 C 8.910156 -1.675781 9.285156 -1.578125 9.671875 -1.546875 C 10.054688 -1.515625 10.375 -1.5 10.625 -1.5 C 12.101562 -1.5 13.441406 -1.703125 14.640625 -2.109375 C 15.847656 -2.515625 16.914062 -3.078125 17.84375 -3.796875 C 18.78125 -4.515625 19.582031 -5.335938 20.25 -6.265625 C 20.914062 -7.191406 21.46875 -8.175781 21.90625 -9.21875 C 22.351562 -10.269531 22.679688 -11.332031 22.890625 -12.40625 C 23.097656 -13.488281 23.203125 -14.539062 23.203125 -15.5625 C 23.203125 -18.425781 22.429688 -20.632812 20.890625 -22.1875 C 19.359375 -23.75 17.253906 -24.53125 14.578125 -24.53125 C 13.921875 -24.53125 13.394531 -24.429688 13 -24.234375 C 12.601562 -24.046875 12.300781 -23.5625 12.09375 -22.78125 Z M 8.078125 -7.875 "/></g></g></g><g fill="#000000" fill-opacity="1"><g transform="translate(129.412234, 161.807655)"><g><path d="M -0.515625 -1.359375 C 0.234375 -1.359375 0.851562 -1.414062 1.34375 -1.53125 C 1.832031 -1.644531 2.238281 -1.851562 2.5625 -2.15625 C 2.894531 -2.46875 3.175781 -2.878906 3.40625 -3.390625 C 3.632812 -3.898438 3.847656 -4.5625 4.046875 -5.375 L 8 -20.40625 C 8.164062 -20.988281 8.285156 -21.492188 8.359375 -21.921875 C 8.441406 -22.359375 8.484375 -22.738281 8.484375 -23.0625 C 8.484375 -23.8125 8.222656 -24.296875 7.703125 -24.515625 C 7.179688 -24.742188 6.304688 -24.859375 5.078125 -24.859375 L 5.453125 -26.234375 L 24.046875 -26.234375 L 24.046875 -19.34375 L 22.75 -19.34375 C 22.457031 -20.4375 22.128906 -21.328125 21.765625 -22.015625 C 21.398438 -22.710938 20.984375 -23.257812 20.515625 -23.65625 C 20.054688 -24.050781 19.535156 -24.328125 18.953125 -24.484375 C 18.378906 -24.648438 17.738281 -24.734375 17.03125 -24.734375 L 12.609375 -24.734375 L 9.953125 -14.609375 L 12.09375 -14.609375 C 12.707031 -14.609375 13.226562 -14.664062 13.65625 -14.78125 C 14.09375 -14.894531 14.484375 -15.09375 14.828125 -15.375 C 15.179688 -15.664062 15.507812 -16.054688 15.8125 -16.546875 C 16.125 -17.046875 16.460938 -17.695312 16.828125 -18.5 L 18.09375 -18.5 L 16.046875 -8.40625 L 14.6875 -8.40625 C 14.75 -9.09375 14.78125 -9.6875 14.78125 -10.1875 C 14.78125 -11.207031 14.585938 -11.945312 14.203125 -12.40625 C 13.816406 -12.875 13.101562 -13.109375 12.0625 -13.109375 L 9.5 -13.109375 L 7.5625 -5.796875 C 7.351562 -5.046875 7.25 -4.410156 7.25 -3.890625 C 7.25 -3.066406 7.613281 -2.457031 8.34375 -2.0625 C 9.070312 -1.664062 10.320312 -1.46875 12.09375 -1.46875 C 13.382812 -1.46875 14.507812 -1.566406 15.46875 -1.765625 C 16.4375 -1.972656 17.28125 -2.296875 18 -2.734375 C 18.71875 -3.179688 19.34375 -3.769531 19.875 -4.5 C 20.40625 -5.226562 20.910156 -6.125 21.390625 -7.1875 L 22.984375 -7.1875 L 20.328125 0 L -0.890625 0 Z M -0.515625 -1.359375 "/></g></g></g><g fill="#000000" fill-opacity="1"><g transform="translate(161.267688, 161.807655)"><g><path d="M 19.75 0 L 10.828125 -20.5 L 10.703125 -20.5 L 6.8125 -5.71875 C 6.675781 -5.175781 6.609375 -4.6875 6.609375 -4.25 C 6.609375 -3.300781 6.890625 -2.585938 7.453125 -2.109375 C 8.023438 -1.628906 8.820312 -1.378906 9.84375 -1.359375 L 9.4375 0 L -0.3125 0 L 0.0625 -1.359375 C 1.132812 -1.359375 2.085938 -1.738281 2.921875 -2.5 C 3.765625 -3.257812 4.347656 -4.21875 4.671875 -5.375 L 8.6875 -20.5 C 8.78125 -20.84375 8.828125 -21.195312 8.828125 -21.5625 C 8.828125 -22.65625 8.363281 -23.472656 7.4375 -24.015625 C 6.519531 -24.554688 5.3125 -24.835938 3.8125 -24.859375 L 4.21875 -26.234375 L 12.234375 -26.234375 L 20.75 -6.703125 L 20.875 -6.703125 L 24.484375 -20.5 C 24.597656 -21 24.65625 -21.421875 24.65625 -21.765625 C 24.65625 -22.742188 24.375 -23.5 23.8125 -24.03125 C 23.257812 -24.5625 22.585938 -24.835938 21.796875 -24.859375 L 22.203125 -26.234375 L 30.921875 -26.234375 L 30.546875 -24.859375 C 30.117188 -24.859375 29.703125 -24.753906 29.296875 -24.546875 C 28.890625 -24.347656 28.515625 -24.070312 28.171875 -23.71875 C 27.828125 -23.375 27.523438 -22.953125 27.265625 -22.453125 C 27.003906 -21.953125 26.796875 -21.414062 26.640625 -20.84375 L 21.125 0 Z M 19.75 0 "/></g></g></g><g fill="#000000" fill-opacity="1"><g transform="translate(196.598273, 161.807655)"><g><path d="M 22.65625 -6.4375 C 21.851562 -5.226562 21.070312 -4.191406 20.3125 -3.328125 C 19.550781 -2.472656 18.757812 -1.769531 17.9375 -1.21875 C 17.125 -0.675781 16.265625 -0.28125 15.359375 -0.03125 C 14.453125 0.21875 13.476562 0.34375 12.4375 0.34375 C 10.882812 0.34375 9.492188 0.0976562 8.265625 -0.390625 C 7.046875 -0.878906 6.007812 -1.582031 5.15625 -2.5 C 4.3125 -3.425781 3.65625 -4.539062 3.1875 -5.84375 C 2.71875 -7.144531 2.484375 -8.613281 2.484375 -10.25 C 2.484375 -12.40625 2.878906 -14.460938 3.671875 -16.421875 C 4.472656 -18.390625 5.535156 -20.125 6.859375 -21.625 C 8.191406 -23.125 9.734375 -24.320312 11.484375 -25.21875 C 13.234375 -26.113281 15.0625 -26.5625 16.96875 -26.5625 C 18.050781 -26.5625 19.085938 -26.394531 20.078125 -26.0625 C 21.066406 -25.738281 22.070312 -25.226562 23.09375 -24.53125 L 24.359375 -26.234375 L 25.609375 -26.234375 L 24.046875 -17.671875 L 22.75 -17.671875 C 22.570312 -20.148438 22.046875 -21.957031 21.171875 -23.09375 C 20.296875 -24.226562 18.984375 -24.796875 17.234375 -24.796875 C 15.734375 -24.796875 14.335938 -24.421875 13.046875 -23.671875 C 11.753906 -22.921875 10.628906 -21.882812 9.671875 -20.5625 C 8.722656 -19.25 7.972656 -17.707031 7.421875 -15.9375 C 6.878906 -14.164062 6.609375 -12.257812 6.609375 -10.21875 C 6.609375 -4.582031 8.800781 -1.765625 13.1875 -1.765625 C 14.820312 -1.765625 16.300781 -2.207031 17.625 -3.09375 C 18.957031 -3.976562 20.222656 -5.363281 21.421875 -7.25 Z M 22.65625 -6.4375 "/></g></g></g><g fill="#000000" fill-opacity="1"><g transform="translate(228.044879, 161.807655)"><g><path d="M -0.515625 -1.359375 C 0.234375 -1.359375 0.851562 -1.414062 1.34375 -1.53125 C 1.832031 -1.644531 2.238281 -1.851562 2.5625 -2.15625 C 2.894531 -2.46875 3.175781 -2.878906 3.40625 -3.390625 C 3.632812 -3.898438 3.847656 -4.5625 4.046875 -5.375 L 8 -20.40625 C 8.164062 -20.988281 8.285156 -21.492188 8.359375 -21.921875 C 8.441406 -22.359375 8.484375 -22.738281 8.484375 -23.0625 C 8.484375 -23.8125 8.222656 -24.296875 7.703125 -24.515625 C 7.179688 -24.742188 6.304688 -24.859375 5.078125 -24.859375 L 5.453125 -26.234375 L 24.046875 -26.234375 L 24.046875 -19.34375 L 22.75 -19.34375 C 22.457031 -20.4375 22.128906 -21.328125 21.765625 -22.015625 C 21.398438 -22.710938 20.984375 -23.257812 20.515625 -23.65625 C 20.054688 -24.050781 19.535156 -24.328125 18.953125 -24.484375 C 18.378906 -24.648438 17.738281 -24.734375 17.03125 -24.734375 L 12.609375 -24.734375 L 9.953125 -14.609375 L 12.09375 -14.609375 C 12.707031 -14.609375 13.226562 -14.664062 13.65625 -14.78125 C 14.09375 -14.894531 14.484375 -15.09375 14.828125 -15.375 C 15.179688 -15.664062 15.507812 -16.054688 15.8125 -16.546875 C 16.125 -17.046875 16.460938 -17.695312 16.828125 -18.5 L 18.09375 -18.5 L 16.046875 -8.40625 L 14.6875 -8.40625 C 14.75 -9.09375 14.78125 -9.6875 14.78125 -10.1875 C 14.78125 -11.207031 14.585938 -11.945312 14.203125 -12.40625 C 13.816406 -12.875 13.101562 -13.109375 12.0625 -13.109375 L 9.5 -13.109375 L 7.5625 -5.796875 C 7.351562 -5.046875 7.25 -4.410156 7.25 -3.890625 C 7.25 -3.066406 7.613281 -2.457031 8.34375 -2.0625 C 9.070312 -1.664062 10.320312 -1.46875 12.09375 -1.46875 C 13.382812 -1.46875 14.507812 -1.566406 15.46875 -1.765625 C 16.4375 -1.972656 17.28125 -2.296875 18 -2.734375 C 18.71875 -3.179688 19.34375 -3.769531 19.875 -4.5 C 20.40625 -5.226562 20.910156 -6.125 21.390625 -7.1875 L 22.984375 -7.1875 L 20.328125 0 L -0.890625 0 Z M -0.515625 -1.359375 "/></g></g></g><g fill="#000000" fill-opacity="1"><g transform="translate(92.299313, 118.620641)"><g><path d="M 3.125 -1.78125 L 1.421875 -1.78125 C 1.347656 -1.613281 1.285156 -1.460938 1.234375 -1.328125 C 1.179688 -1.191406 1.140625 -1.070312 1.109375 -0.96875 C 1.078125 -0.875 1.050781 -0.789062 1.03125 -0.71875 C 1.019531 -0.65625 1.015625 -0.601562 1.015625 -0.5625 C 1.015625 -0.4375 1.050781 -0.351562 1.125 -0.3125 C 1.207031 -0.269531 1.335938 -0.25 1.515625 -0.25 L 1.515625 0 L -0.03125 0 L -0.03125 -0.25 C 0.0625 -0.257812 0.144531 -0.273438 0.21875 -0.296875 C 0.289062 -0.316406 0.351562 -0.34375 0.40625 -0.375 C 0.457031 -0.414062 0.503906 -0.46875 0.546875 -0.53125 C 0.585938 -0.59375 0.625 -0.671875 0.65625 -0.765625 L 2.328125 -4.9375 L 2.59375 -4.9375 L 4.0625 -1.3125 C 4.15625 -1.082031 4.238281 -0.894531 4.3125 -0.75 C 4.382812 -0.601562 4.453125 -0.492188 4.515625 -0.421875 C 4.585938 -0.347656 4.660156 -0.300781 4.734375 -0.28125 C 4.816406 -0.257812 4.914062 -0.25 5.03125 -0.25 L 5.03125 0 L 2.9375 0 L 2.9375 -0.25 C 3.164062 -0.25 3.320312 -0.269531 3.40625 -0.3125 C 3.488281 -0.351562 3.53125 -0.425781 3.53125 -0.53125 C 3.53125 -0.570312 3.53125 -0.609375 3.53125 -0.640625 C 3.53125 -0.679688 3.519531 -0.722656 3.5 -0.765625 C 3.488281 -0.804688 3.472656 -0.851562 3.453125 -0.90625 C 3.441406 -0.957031 3.421875 -1.019531 3.390625 -1.09375 Z M 1.546875 -2.109375 L 3 -2.109375 L 2.296875 -4 Z M 1.546875 -2.109375 "/></g></g></g><g fill="#000000" fill-opacity="1"><g transform="translate(100.091328, 118.620641)"><g><path d="M 0.734375 -4.140625 C 0.671875 -4.253906 0.609375 -4.34375 0.546875 -4.40625 C 0.492188 -4.476562 0.4375 -4.535156 0.375 -4.578125 C 0.320312 -4.617188 0.265625 -4.644531 0.203125 -4.65625 C 0.140625 -4.675781 0.0625 -4.6875 -0.03125 -4.6875 L -0.03125 -4.9375 L 1.984375 -4.9375 L 1.984375 -4.6875 C 1.773438 -4.6875 1.625 -4.671875 1.53125 -4.640625 C 1.445312 -4.609375 1.40625 -4.550781 1.40625 -4.46875 C 1.40625 -4.382812 1.453125 -4.257812 1.546875 -4.09375 L 2.546875 -2.390625 L 2.5625 -2.390625 L 3.296875 -3.609375 C 3.429688 -3.835938 3.523438 -4.015625 3.578125 -4.140625 C 3.640625 -4.273438 3.671875 -4.382812 3.671875 -4.46875 C 3.671875 -4.550781 3.640625 -4.609375 3.578125 -4.640625 C 3.515625 -4.671875 3.40625 -4.6875 3.25 -4.6875 L 3.25 -4.9375 L 4.71875 -4.9375 L 4.71875 -4.6875 C 4.632812 -4.6875 4.554688 -4.671875 4.484375 -4.640625 C 4.410156 -4.617188 4.332031 -4.566406 4.25 -4.484375 C 4.175781 -4.410156 4.09375 -4.304688 4 -4.171875 C 3.914062 -4.035156 3.804688 -3.859375 3.671875 -3.640625 L 2.6875 -1.96875 L 2.6875 -1.203125 C 2.6875 -0.992188 2.691406 -0.828125 2.703125 -0.703125 C 2.722656 -0.578125 2.753906 -0.476562 2.796875 -0.40625 C 2.847656 -0.34375 2.921875 -0.300781 3.015625 -0.28125 C 3.109375 -0.257812 3.226562 -0.25 3.375 -0.25 L 3.375 0 L 1.3125 0 L 1.3125 -0.25 C 1.457031 -0.25 1.578125 -0.257812 1.671875 -0.28125 C 1.765625 -0.300781 1.832031 -0.34375 1.875 -0.40625 C 1.925781 -0.476562 1.960938 -0.570312 1.984375 -0.6875 C 2.003906 -0.8125 2.015625 -0.972656 2.015625 -1.171875 L 2.015625 -1.953125 Z M 0.734375 -4.140625 "/></g></g></g><g fill="#000000" fill-opacity="1"><g transform="translate(107.633232, 118.620641)"><g><path d="M 4.625 -1.984375 C 4.625 -1.648438 4.585938 -1.351562 4.515625 -1.09375 C 4.453125 -0.84375 4.347656 -0.628906 4.203125 -0.453125 C 4.054688 -0.285156 3.863281 -0.15625 3.625 -0.0625 C 3.394531 0.0195312 3.113281 0.0625 2.78125 0.0625 C 2.46875 0.0625 2.191406 0.03125 1.953125 -0.03125 C 1.722656 -0.09375 1.523438 -0.191406 1.359375 -0.328125 C 1.203125 -0.472656 1.082031 -0.660156 1 -0.890625 C 0.925781 -1.128906 0.890625 -1.414062 0.890625 -1.75 L 0.890625 -3.4375 C 0.890625 -3.757812 0.882812 -4.003906 0.875 -4.171875 C 0.863281 -4.335938 0.820312 -4.460938 0.75 -4.546875 C 0.695312 -4.597656 0.625 -4.632812 0.53125 -4.65625 C 0.445312 -4.675781 0.332031 -4.6875 0.1875 -4.6875 L 0.1875 -4.9375 L 2.375 -4.9375 L 2.375 -4.6875 C 2.226562 -4.6875 2.109375 -4.675781 2.015625 -4.65625 C 1.929688 -4.644531 1.863281 -4.601562 1.8125 -4.53125 C 1.75 -4.457031 1.707031 -4.335938 1.6875 -4.171875 C 1.675781 -4.003906 1.671875 -3.757812 1.671875 -3.4375 L 1.671875 -1.703125 C 1.671875 -1.484375 1.691406 -1.285156 1.734375 -1.109375 C 1.773438 -0.941406 1.847656 -0.800781 1.953125 -0.6875 C 2.054688 -0.570312 2.1875 -0.484375 2.34375 -0.421875 C 2.507812 -0.359375 2.710938 -0.328125 2.953125 -0.328125 C 3.378906 -0.328125 3.695312 -0.445312 3.90625 -0.6875 C 4.125 -0.925781 4.234375 -1.273438 4.234375 -1.734375 L 4.234375 -3.28125 C 4.234375 -3.65625 4.21875 -3.941406 4.1875 -4.140625 C 4.164062 -4.335938 4.113281 -4.476562 4.03125 -4.5625 C 3.96875 -4.613281 3.890625 -4.644531 3.796875 -4.65625 C 3.710938 -4.675781 3.601562 -4.6875 3.46875 -4.6875 L 3.46875 -4.9375 L 5.328125 -4.9375 L 5.328125 -4.6875 C 5.191406 -4.6875 5.078125 -4.675781 4.984375 -4.65625 C 4.898438 -4.632812 4.832031 -4.585938 4.78125 -4.515625 C 4.71875 -4.421875 4.675781 -4.28125 4.65625 -4.09375 C 4.632812 -3.90625 4.625 -3.632812 4.625 -3.28125 Z M 4.625 -1.984375 "/></g></g></g><g fill="#000000" fill-opacity="1"><g transform="translate(115.996024, 118.620641)"><g><path d="M 0.375 -1.5 L 0.609375 -1.5 C 0.640625 -1.3125 0.695312 -1.140625 0.78125 -0.984375 C 0.863281 -0.828125 0.96875 -0.695312 1.09375 -0.59375 C 1.21875 -0.488281 1.363281 -0.40625 1.53125 -0.34375 C 1.695312 -0.289062 1.875 -0.265625 2.0625 -0.265625 C 2.375 -0.265625 2.625 -0.335938 2.8125 -0.484375 C 3 -0.640625 3.09375 -0.84375 3.09375 -1.09375 C 3.09375 -1.195312 3.070312 -1.296875 3.03125 -1.390625 C 3 -1.484375 2.9375 -1.570312 2.84375 -1.65625 C 2.757812 -1.738281 2.644531 -1.816406 2.5 -1.890625 C 2.363281 -1.972656 2.1875 -2.0625 1.96875 -2.15625 C 1.695312 -2.269531 1.472656 -2.378906 1.296875 -2.484375 C 1.117188 -2.597656 0.976562 -2.710938 0.875 -2.828125 C 0.769531 -2.941406 0.691406 -3.0625 0.640625 -3.1875 C 0.597656 -3.320312 0.578125 -3.472656 0.578125 -3.640625 C 0.578125 -3.835938 0.609375 -4.019531 0.671875 -4.1875 C 0.742188 -4.351562 0.84375 -4.492188 0.96875 -4.609375 C 1.101562 -4.734375 1.257812 -4.828125 1.4375 -4.890625 C 1.613281 -4.960938 1.804688 -5 2.015625 -5 C 2.203125 -5 2.375 -4.96875 2.53125 -4.90625 C 2.695312 -4.84375 2.863281 -4.75 3.03125 -4.625 L 3.203125 -4.90625 L 3.34375 -4.90625 L 3.421875 -3.625 L 3.171875 -3.625 C 3.078125 -3.976562 2.929688 -4.238281 2.734375 -4.40625 C 2.535156 -4.582031 2.300781 -4.671875 2.03125 -4.671875 C 1.769531 -4.671875 1.5625 -4.601562 1.40625 -4.46875 C 1.25 -4.34375 1.171875 -4.171875 1.171875 -3.953125 C 1.171875 -3.859375 1.1875 -3.769531 1.21875 -3.6875 C 1.257812 -3.601562 1.316406 -3.519531 1.390625 -3.4375 C 1.472656 -3.363281 1.578125 -3.289062 1.703125 -3.21875 C 1.828125 -3.144531 1.976562 -3.066406 2.15625 -2.984375 C 2.476562 -2.847656 2.742188 -2.71875 2.953125 -2.59375 C 3.160156 -2.46875 3.320312 -2.34375 3.4375 -2.21875 C 3.5625 -2.101562 3.648438 -1.976562 3.703125 -1.84375 C 3.753906 -1.707031 3.78125 -1.554688 3.78125 -1.390625 C 3.78125 -1.171875 3.738281 -0.972656 3.65625 -0.796875 C 3.570312 -0.617188 3.453125 -0.460938 3.296875 -0.328125 C 3.140625 -0.203125 2.953125 -0.101562 2.734375 -0.03125 C 2.523438 0.03125 2.296875 0.0625 2.046875 0.0625 C 1.796875 0.0625 1.570312 0.03125 1.375 -0.03125 C 1.1875 -0.101562 0.992188 -0.222656 0.796875 -0.390625 L 0.609375 -0.078125 L 0.46875 -0.078125 Z M 0.375 -1.5 "/></g></g></g><g fill="#000000" fill-opacity="1"><g transform="translate(122.973565, 118.620641)"><g><path d="M 4.9375 -1.015625 C 4.9375 -0.859375 4.941406 -0.726562 4.953125 -0.625 C 4.972656 -0.519531 5.003906 -0.441406 5.046875 -0.390625 C 5.097656 -0.335938 5.171875 -0.300781 5.265625 -0.28125 C 5.359375 -0.257812 5.476562 -0.25 5.625 -0.25 L 5.625 0 L 3.5625 0 L 3.5625 -0.25 C 3.707031 -0.25 3.828125 -0.257812 3.921875 -0.28125 C 4.015625 -0.300781 4.082031 -0.335938 4.125 -0.390625 C 4.175781 -0.441406 4.210938 -0.515625 4.234375 -0.609375 C 4.253906 -0.703125 4.265625 -0.820312 4.265625 -0.96875 L 4.265625 -2.359375 L 1.671875 -2.359375 L 1.671875 -1.015625 C 1.671875 -0.859375 1.675781 -0.726562 1.6875 -0.625 C 1.707031 -0.519531 1.738281 -0.441406 1.78125 -0.390625 C 1.832031 -0.335938 1.90625 -0.300781 2 -0.28125 C 2.09375 -0.257812 2.210938 -0.25 2.359375 -0.25 L 2.359375 0 L 0.28125 0 L 0.28125 -0.25 C 0.4375 -0.25 0.554688 -0.257812 0.640625 -0.28125 C 0.734375 -0.300781 0.804688 -0.335938 0.859375 -0.390625 C 0.910156 -0.441406 0.945312 -0.515625 0.96875 -0.609375 C 0.988281 -0.703125 1 -0.820312 1 -0.96875 L 1 -3.953125 C 1 -4.109375 0.988281 -4.226562 0.96875 -4.3125 C 0.957031 -4.40625 0.925781 -4.476562 0.875 -4.53125 C 0.832031 -4.59375 0.769531 -4.628906 0.6875 -4.640625 C 0.601562 -4.660156 0.492188 -4.675781 0.359375 -4.6875 L 0.359375 -4.9375 L 2.296875 -4.9375 L 2.296875 -4.6875 C 2.160156 -4.6875 2.050781 -4.675781 1.96875 -4.65625 C 1.882812 -4.632812 1.816406 -4.59375 1.765625 -4.53125 C 1.722656 -4.476562 1.695312 -4.398438 1.6875 -4.296875 C 1.675781 -4.203125 1.671875 -4.078125 1.671875 -3.921875 L 1.671875 -2.6875 L 4.265625 -2.6875 L 4.265625 -3.953125 C 4.265625 -4.109375 4.253906 -4.226562 4.234375 -4.3125 C 4.222656 -4.40625 4.191406 -4.476562 4.140625 -4.53125 C 4.097656 -4.59375 4.035156 -4.628906 3.953125 -4.640625 C 3.867188 -4.660156 3.757812 -4.675781 3.625 -4.6875 L 3.625 -4.9375 L 5.5625 -4.9375 L 5.5625 -4.6875 C 5.425781 -4.6875 5.316406 -4.675781 5.234375 -4.65625 C 5.148438 -4.632812 5.085938 -4.59375 5.046875 -4.53125 C 5.003906 -4.476562 4.972656 -4.398438 4.953125 -4.296875 C 4.941406 -4.203125 4.9375 -4.078125 4.9375 -3.921875 Z M 4.9375 -1.015625 "/></g></g></g><g fill="#000000" fill-opacity="1"><g transform="translate(131.7468, 118.620641)"><g/></g></g><g fill="#000000" fill-opacity="1"><g transform="translate(136.42842, 118.620641)"><g><path d="M 3.125 -1.78125 L 1.421875 -1.78125 C 1.347656 -1.613281 1.285156 -1.460938 1.234375 -1.328125 C 1.179688 -1.191406 1.140625 -1.070312 1.109375 -0.96875 C 1.078125 -0.875 1.050781 -0.789062 1.03125 -0.71875 C 1.019531 -0.65625 1.015625 -0.601562 1.015625 -0.5625 C 1.015625 -0.4375 1.050781 -0.351562 1.125 -0.3125 C 1.207031 -0.269531 1.335938 -0.25 1.515625 -0.25 L 1.515625 0 L -0.03125 0 L -0.03125 -0.25 C 0.0625 -0.257812 0.144531 -0.273438 0.21875 -0.296875 C 0.289062 -0.316406 0.351562 -0.34375 0.40625 -0.375 C 0.457031 -0.414062 0.503906 -0.46875 0.546875 -0.53125 C 0.585938 -0.59375 0.625 -0.671875 0.65625 -0.765625 L 2.328125 -4.9375 L 2.59375 -4.9375 L 4.0625 -1.3125 C 4.15625 -1.082031 4.238281 -0.894531 4.3125 -0.75 C 4.382812 -0.601562 4.453125 -0.492188 4.515625 -0.421875 C 4.585938 -0.347656 4.660156 -0.300781 4.734375 -0.28125 C 4.816406 -0.257812 4.914062 -0.25 5.03125 -0.25 L 5.03125 0 L 2.9375 0 L 2.9375 -0.25 C 3.164062 -0.25 3.320312 -0.269531 3.40625 -0.3125 C 3.488281 -0.351562 3.53125 -0.425781 3.53125 -0.53125 C 3.53125 -0.570312 3.53125 -0.609375 3.53125 -0.640625 C 3.53125 -0.679688 3.519531 -0.722656 3.5 -0.765625 C 3.488281 -0.804688 3.472656 -0.851562 3.453125 -0.90625 C 3.441406 -0.957031 3.421875 -1.019531 3.390625 -1.09375 Z M 1.546875 -2.109375 L 3 -2.109375 L 2.296875 -4 Z M 1.546875 -2.109375 "/></g></g></g><g fill="#000000" fill-opacity="1"><g transform="translate(144.220437, 118.620641)"><g><path d="M 2.734375 0.0625 C 2.378906 0.0625 2.054688 0.00390625 1.765625 -0.109375 C 1.472656 -0.222656 1.222656 -0.382812 1.015625 -0.59375 C 0.816406 -0.8125 0.660156 -1.070312 0.546875 -1.375 C 0.441406 -1.675781 0.390625 -2.015625 0.390625 -2.390625 C 0.390625 -2.773438 0.445312 -3.125 0.5625 -3.4375 C 0.6875 -3.757812 0.851562 -4.035156 1.0625 -4.265625 C 1.28125 -4.503906 1.539062 -4.6875 1.84375 -4.8125 C 2.144531 -4.9375 2.476562 -5 2.84375 -5 C 3.09375 -5 3.332031 -4.960938 3.5625 -4.890625 C 3.789062 -4.816406 4.035156 -4.695312 4.296875 -4.53125 L 4.4375 -4.9375 L 4.65625 -4.9375 L 4.578125 -3.453125 L 4.265625 -3.453125 C 4.265625 -3.660156 4.222656 -3.84375 4.140625 -4 C 4.066406 -4.15625 3.960938 -4.28125 3.828125 -4.375 C 3.703125 -4.46875 3.554688 -4.535156 3.390625 -4.578125 C 3.234375 -4.628906 3.066406 -4.65625 2.890625 -4.65625 C 2.628906 -4.65625 2.394531 -4.601562 2.1875 -4.5 C 1.988281 -4.40625 1.816406 -4.257812 1.671875 -4.0625 C 1.535156 -3.875 1.429688 -3.640625 1.359375 -3.359375 C 1.285156 -3.085938 1.25 -2.773438 1.25 -2.421875 C 1.25 -1.734375 1.390625 -1.203125 1.671875 -0.828125 C 1.953125 -0.460938 2.367188 -0.28125 2.921875 -0.28125 C 3.117188 -0.28125 3.296875 -0.300781 3.453125 -0.34375 C 3.617188 -0.394531 3.757812 -0.460938 3.875 -0.546875 C 3.988281 -0.628906 4.070312 -0.722656 4.125 -0.828125 C 4.1875 -0.941406 4.21875 -1.0625 4.21875 -1.1875 C 4.21875 -1.4375 4.164062 -1.601562 4.0625 -1.6875 C 3.96875 -1.769531 3.804688 -1.8125 3.578125 -1.8125 L 3.578125 -2.0625 L 5.40625 -2.0625 L 5.40625 -1.8125 C 5.300781 -1.8125 5.210938 -1.800781 5.140625 -1.78125 C 5.078125 -1.769531 5.023438 -1.742188 4.984375 -1.703125 C 4.941406 -1.660156 4.910156 -1.601562 4.890625 -1.53125 C 4.878906 -1.457031 4.875 -1.363281 4.875 -1.25 L 4.875 -0.53125 C 4.789062 -0.53125 4.71875 -0.523438 4.65625 -0.515625 C 4.59375 -0.515625 4.523438 -0.5 4.453125 -0.46875 C 4.378906 -0.445312 4.296875 -0.414062 4.203125 -0.375 C 4.117188 -0.34375 4.015625 -0.289062 3.890625 -0.21875 C 3.742188 -0.132812 3.570312 -0.0664062 3.375 -0.015625 C 3.1875 0.0351562 2.972656 0.0625 2.734375 0.0625 Z M 2.734375 0.0625 "/></g></g></g><g fill="#000000" fill-opacity="1"><g transform="translate(152.640945, 118.620641)"><g><path d="M 3.125 -1.78125 L 1.421875 -1.78125 C 1.347656 -1.613281 1.285156 -1.460938 1.234375 -1.328125 C 1.179688 -1.191406 1.140625 -1.070312 1.109375 -0.96875 C 1.078125 -0.875 1.050781 -0.789062 1.03125 -0.71875 C 1.019531 -0.65625 1.015625 -0.601562 1.015625 -0.5625 C 1.015625 -0.4375 1.050781 -0.351562 1.125 -0.3125 C 1.207031 -0.269531 1.335938 -0.25 1.515625 -0.25 L 1.515625 0 L -0.03125 0 L -0.03125 -0.25 C 0.0625 -0.257812 0.144531 -0.273438 0.21875 -0.296875 C 0.289062 -0.316406 0.351562 -0.34375 0.40625 -0.375 C 0.457031 -0.414062 0.503906 -0.46875 0.546875 -0.53125 C 0.585938 -0.59375 0.625 -0.671875 0.65625 -0.765625 L 2.328125 -4.9375 L 2.59375 -4.9375 L 4.0625 -1.3125 C 4.15625 -1.082031 4.238281 -0.894531 4.3125 -0.75 C 4.382812 -0.601562 4.453125 -0.492188 4.515625 -0.421875 C 4.585938 -0.347656 4.660156 -0.300781 4.734375 -0.28125 C 4.816406 -0.257812 4.914062 -0.25 5.03125 -0.25 L 5.03125 0 L 2.9375 0 L 2.9375 -0.25 C 3.164062 -0.25 3.320312 -0.269531 3.40625 -0.3125 C 3.488281 -0.351562 3.53125 -0.425781 3.53125 -0.53125 C 3.53125 -0.570312 3.53125 -0.609375 3.53125 -0.640625 C 3.53125 -0.679688 3.519531 -0.722656 3.5 -0.765625 C 3.488281 -0.804688 3.472656 -0.851562 3.453125 -0.90625 C 3.441406 -0.957031 3.421875 -1.019531 3.390625 -1.09375 Z M 1.546875 -2.109375 L 3 -2.109375 L 2.296875 -4 Z M 1.546875 -2.109375 "/></g></g></g><g fill="#000000" fill-opacity="1"><g transform="translate(160.432959, 118.620641)"><g><path d="M 4.21875 -3.703125 C 4.21875 -3.359375 4.113281 -3.070312 3.90625 -2.84375 C 3.695312 -2.613281 3.367188 -2.460938 2.921875 -2.390625 L 4.34375 -0.6875 C 4.457031 -0.539062 4.582031 -0.4375 4.71875 -0.375 C 4.863281 -0.3125 5.03125 -0.269531 5.21875 -0.25 L 5.21875 0 L 3.984375 0 L 2.421875 -2.015625 C 2.359375 -2.085938 2.300781 -2.144531 2.25 -2.1875 C 2.207031 -2.226562 2.160156 -2.257812 2.109375 -2.28125 C 2.054688 -2.300781 1.992188 -2.316406 1.921875 -2.328125 C 1.847656 -2.335938 1.765625 -2.34375 1.671875 -2.34375 L 1.671875 -1 C 1.671875 -0.84375 1.675781 -0.710938 1.6875 -0.609375 C 1.707031 -0.515625 1.75 -0.4375 1.8125 -0.375 C 1.875 -0.320312 1.960938 -0.285156 2.078125 -0.265625 C 2.203125 -0.253906 2.359375 -0.25 2.546875 -0.25 L 2.546875 0 L 0.28125 0 L 0.28125 -0.25 C 0.4375 -0.25 0.554688 -0.257812 0.640625 -0.28125 C 0.734375 -0.300781 0.804688 -0.335938 0.859375 -0.390625 C 0.910156 -0.441406 0.945312 -0.515625 0.96875 -0.609375 C 0.988281 -0.703125 1 -0.820312 1 -0.96875 L 1 -3.953125 C 1 -4.109375 0.988281 -4.226562 0.96875 -4.3125 C 0.957031 -4.40625 0.925781 -4.476562 0.875 -4.53125 C 0.832031 -4.59375 0.769531 -4.628906 0.6875 -4.640625 C 0.601562 -4.660156 0.492188 -4.675781 0.359375 -4.6875 L 0.359375 -4.9375 L 2.359375 -4.9375 C 2.953125 -4.9375 3.410156 -4.828125 3.734375 -4.609375 C 4.054688 -4.390625 4.21875 -4.085938 4.21875 -3.703125 Z M 1.671875 -2.65625 L 2.125 -2.65625 C 2.550781 -2.65625 2.863281 -2.734375 3.0625 -2.890625 C 3.269531 -3.046875 3.375 -3.304688 3.375 -3.671875 C 3.375 -4.015625 3.289062 -4.257812 3.125 -4.40625 C 2.96875 -4.550781 2.710938 -4.625 2.359375 -4.625 L 1.78125 -4.625 C 1.707031 -4.625 1.671875 -4.585938 1.671875 -4.515625 Z M 1.671875 -2.65625 "/></g></g></g><g fill="#000000" fill-opacity="1"><g transform="translate(168.327589, 118.620641)"><g><path d="M 5.34375 -0.96875 L 6.34375 -3.75 C 6.40625 -3.914062 6.445312 -4.046875 6.46875 -4.140625 C 6.5 -4.242188 6.515625 -4.332031 6.515625 -4.40625 C 6.515625 -4.507812 6.476562 -4.582031 6.40625 -4.625 C 6.332031 -4.664062 6.207031 -4.6875 6.03125 -4.6875 L 6.03125 -4.9375 L 7.578125 -4.9375 L 7.578125 -4.6875 C 7.390625 -4.6875 7.242188 -4.644531 7.140625 -4.5625 C 7.035156 -4.488281 6.953125 -4.359375 6.890625 -4.171875 L 5.28125 0.0625 L 5.046875 0.0625 L 3.828125 -3.578125 L 2.453125 0.0625 L 2.234375 0.0625 L 0.90625 -3.609375 C 0.820312 -3.816406 0.75 -3.988281 0.6875 -4.125 C 0.632812 -4.269531 0.570312 -4.378906 0.5 -4.453125 C 0.425781 -4.535156 0.34375 -4.59375 0.25 -4.625 C 0.164062 -4.664062 0.0546875 -4.6875 -0.078125 -4.6875 L -0.078125 -4.9375 L 2.015625 -4.9375 L 2.015625 -4.6875 C 1.796875 -4.6875 1.640625 -4.664062 1.546875 -4.625 C 1.460938 -4.582031 1.421875 -4.507812 1.421875 -4.40625 C 1.421875 -4.34375 1.429688 -4.273438 1.453125 -4.203125 C 1.472656 -4.128906 1.5 -4.046875 1.53125 -3.953125 L 2.5 -0.984375 L 3.296875 -3.203125 C 3.347656 -3.367188 3.40625 -3.519531 3.46875 -3.65625 C 3.53125 -3.800781 3.578125 -3.9375 3.609375 -4.0625 C 3.546875 -4.175781 3.488281 -4.273438 3.4375 -4.359375 C 3.394531 -4.441406 3.347656 -4.503906 3.296875 -4.546875 C 3.242188 -4.597656 3.191406 -4.632812 3.140625 -4.65625 C 3.085938 -4.675781 3.03125 -4.6875 2.96875 -4.6875 L 2.96875 -4.9375 L 4.9375 -4.9375 L 4.9375 -4.6875 C 4.8125 -4.6875 4.707031 -4.679688 4.625 -4.671875 C 4.550781 -4.660156 4.492188 -4.644531 4.453125 -4.625 C 4.410156 -4.601562 4.378906 -4.578125 4.359375 -4.546875 C 4.347656 -4.515625 4.34375 -4.472656 4.34375 -4.421875 C 4.34375 -4.359375 4.351562 -4.28125 4.375 -4.1875 C 4.40625 -4.101562 4.441406 -3.988281 4.484375 -3.84375 Z M 5.34375 -0.96875 "/></g></g></g><g fill="#000000" fill-opacity="1"><g transform="translate(178.710532, 118.620641)"><g><path d="M 3.125 -1.78125 L 1.421875 -1.78125 C 1.347656 -1.613281 1.285156 -1.460938 1.234375 -1.328125 C 1.179688 -1.191406 1.140625 -1.070312 1.109375 -0.96875 C 1.078125 -0.875 1.050781 -0.789062 1.03125 -0.71875 C 1.019531 -0.65625 1.015625 -0.601562 1.015625 -0.5625 C 1.015625 -0.4375 1.050781 -0.351562 1.125 -0.3125 C 1.207031 -0.269531 1.335938 -0.25 1.515625 -0.25 L 1.515625 0 L -0.03125 0 L -0.03125 -0.25 C 0.0625 -0.257812 0.144531 -0.273438 0.21875 -0.296875 C 0.289062 -0.316406 0.351562 -0.34375 0.40625 -0.375 C 0.457031 -0.414062 0.503906 -0.46875 0.546875 -0.53125 C 0.585938 -0.59375 0.625 -0.671875 0.65625 -0.765625 L 2.328125 -4.9375 L 2.59375 -4.9375 L 4.0625 -1.3125 C 4.15625 -1.082031 4.238281 -0.894531 4.3125 -0.75 C 4.382812 -0.601562 4.453125 -0.492188 4.515625 -0.421875 C 4.585938 -0.347656 4.660156 -0.300781 4.734375 -0.28125 C 4.816406 -0.257812 4.914062 -0.25 5.03125 -0.25 L 5.03125 0 L 2.9375 0 L 2.9375 -0.25 C 3.164062 -0.25 3.320312 -0.269531 3.40625 -0.3125 C 3.488281 -0.351562 3.53125 -0.425781 3.53125 -0.53125 C 3.53125 -0.570312 3.53125 -0.609375 3.53125 -0.640625 C 3.53125 -0.679688 3.519531 -0.722656 3.5 -0.765625 C 3.488281 -0.804688 3.472656 -0.851562 3.453125 -0.90625 C 3.441406 -0.957031 3.421875 -1.019531 3.390625 -1.09375 Z M 1.546875 -2.109375 L 3 -2.109375 L 2.296875 -4 Z M 1.546875 -2.109375 "/></g></g></g><g fill="#000000" fill-opacity="1"><g transform="translate(186.502546, 118.620641)"><g><path d="M 4.421875 0 L 0.28125 0 L 0.28125 -0.25 C 0.4375 -0.25 0.554688 -0.257812 0.640625 -0.28125 C 0.734375 -0.300781 0.804688 -0.335938 0.859375 -0.390625 C 0.910156 -0.441406 0.945312 -0.515625 0.96875 -0.609375 C 0.988281 -0.703125 1 -0.820312 1 -0.96875 L 1 -3.953125 C 1 -4.109375 0.988281 -4.226562 0.96875 -4.3125 C 0.957031 -4.40625 0.925781 -4.476562 0.875 -4.53125 C 0.832031 -4.59375 0.769531 -4.628906 0.6875 -4.640625 C 0.601562 -4.660156 0.492188 -4.675781 0.359375 -4.6875 L 0.359375 -4.9375 L 2.296875 -4.9375 L 2.296875 -4.6875 C 2.160156 -4.6875 2.050781 -4.675781 1.96875 -4.65625 C 1.882812 -4.632812 1.816406 -4.59375 1.765625 -4.53125 C 1.722656 -4.476562 1.695312 -4.398438 1.6875 -4.296875 C 1.675781 -4.203125 1.671875 -4.078125 1.671875 -3.921875 L 1.671875 -1.15625 C 1.671875 -0.976562 1.6875 -0.832031 1.71875 -0.71875 C 1.757812 -0.601562 1.820312 -0.515625 1.90625 -0.453125 C 1.988281 -0.390625 2.101562 -0.34375 2.25 -0.3125 C 2.394531 -0.289062 2.582031 -0.28125 2.8125 -0.28125 C 3.050781 -0.28125 3.253906 -0.296875 3.421875 -0.328125 C 3.585938 -0.359375 3.726562 -0.40625 3.84375 -0.46875 C 3.957031 -0.539062 4.046875 -0.640625 4.109375 -0.765625 C 4.171875 -0.898438 4.226562 -1.066406 4.28125 -1.265625 L 4.515625 -1.265625 Z M 4.421875 0 "/></g></g></g></svg>